<?xml version="1.0" encoding="UTF-8"?>
<svg width="118px" height="180px" viewBox="0 0 118 180" version="1.1" xmlns="http://www.w3.org/2000/svg" xmlns:xlink="http://www.w3.org/1999/xlink">
    <!-- Generator: Sketch 61 (89581) - https://sketch.com -->
    <title>token image</title>
    <desc>Created with Sketch.</desc>
    <g id="token-image" stroke="none" stroke-width="1" fill="none" fill-rule="evenodd">
        <rect id="Rectangle" stroke="#0B0C0B" stroke-width="3" fill="#383C42" x="1.5" y="1.5" width="115" height="177" rx="10"></rect>
        <g id="Logo-/-Masterbrand-/-Priamry-/-OnDark" transform="translate(40.000000, 47.000000)">
            <g id="Type" transform="translate(21.567062, 2.805980)" fill="#FFFFFF">
                <path d="M13.694669,4.35740704 C12.3511034,4.35740704 11.7457353,3.49499497 11.7457353,2.22177889 C11.7457353,0.960221106 12.4145391,0.0169547739 13.7409315,0.0169547739 C14.5711534,0.0169547739 15.3784444,0.387306533 15.4015255,1.33630151 L14.4674132,1.33630151 C14.4212008,0.919668342 14.1443767,0.699718593 13.7409315,0.699718593 C12.9277326,0.699718593 12.6797475,1.57941709 12.6797475,2.25067337 C12.6797475,2.91630151 12.9277326,3.69177889 13.7118923,3.69177889 C14.1213456,3.69177889 14.4212008,3.47192965 14.4845864,3.04941709 L15.4244565,3.04941709 C15.3208165,3.99856281 14.5596379,4.35740704 13.694669,4.35740704" id="Fill-11"></path>
                <path d="M5.78603163,4.35740704 C4.886466,4.35740704 4.14846871,3.99856281 4.1311453,2.99740704 L5.03646871,2.99740704 C5.04798427,3.44308543 5.30743488,3.70921608 5.80340511,3.70921608 C6.17250389,3.70921608 6.58766492,3.52398995 6.58766492,3.10725628 C6.58766492,2.78328643 6.30513312,2.67911558 5.83790173,2.54594975 L5.53814665,2.45916583 C4.88090849,2.26821106 4.22912771,2.01343719 4.22912771,1.26112563 C4.22912771,0.329366834 5.09419672,0.0169547739 5.88411418,0.0169547739 C6.69706276,0.0169547739 7.39480565,0.300522613 7.4006135,1.22645226 L6.49539023,1.22645226 C6.46074341,0.844492462 6.2416974,0.624542714 5.81482054,0.624542714 C5.48046871,0.624542714 5.14606682,0.803939698 5.14606682,1.17429146 C5.14606682,1.48107538 5.42279077,1.57368844 6.01093556,1.75886432 L6.35695315,1.86886432 C7.07196939,2.09454271 7.5216771,2.34328643 7.5216771,3.03790955 C7.5216771,3.99268342 6.60483813,4.35740704 5.78603163,4.35740704" id="Fill-7"></path>
                <path d="M9.57112663,3.65712563 C9.99204544,3.65712563 10.4073066,3.55868342 10.4073066,3.04943719 C10.4073066,2.55169849 10.0497234,2.43586935 9.62294665,2.43586935 L8.90808062,2.43586935 L8.90808062,3.65712563 L9.57112663,3.65712563 Z M9.48465978,1.83978894 C9.88254746,1.83978894 10.2859927,1.75888442 10.2859927,1.27265327 C10.2859927,0.838733668 9.90547845,0.722854271 9.54233772,0.722854271 L8.90808062,0.722854271 L8.90808062,1.83978894 L9.48465978,1.83978894 Z M8.03154611,0.0979296482 L9.47880186,0.0979296482 C9.93451769,0.0979296482 10.118967,0.109537688 10.2976584,0.149939698 C10.8050941,0.265668342 11.1856584,0.595517588 11.1856584,1.15702513 C11.1856584,1.69516583 10.8454988,1.97290452 10.3553364,2.10034171 C10.9204,2.20451256 11.3355109,2.4939598 11.3355109,3.11310553 C11.3355109,4.06220101 10.4014487,4.28215075 9.66920917,4.28215075 L8.03154611,4.28215075 L8.03154611,0.0979296482 Z" id="Fill-9"></path>
                <polygon id="Fill-6" points="2.71312906 2.49388945 0.90829009 2.49388945 0.90829009 4.2821809 0.00301674759 4.2821809 0.00301674759 0.0978592965 0.90829009 0.0978592965 0.90829009 1.81092462 2.71312906 1.81092462 2.71312906 0.0978592965 3.6184024 0.0978592965 3.6184024 4.2821809 2.71312906 4.2821809"></polygon>
            </g>
            <g id="Logo">
                <polygon id="Fill-1" fill="#FFFFFF" points="5 10 15 10 15 0 5 0"></polygon>
                <polygon id="Fill-3" fill="#DB0011" points="5 1.00502513e-05 10 5 15 1.00502513e-05"></polygon>
                <polygon id="Fill-5" fill="#DB0011" points="5 10 15 10 10 5"></polygon>
                <polygon id="Fill-2" fill="#DB0011" points="15 10 20 5 15 -5.35519341e-15"></polygon>
                <polygon id="Fill-4" fill="#DB0011" points="0 5 4.97772666 9.99189447 5 10 5 2.13998709e-15"></polygon>
            </g>
        </g>
        <g id="screen" transform="translate(25.000000, 16.000000)">
            <rect id="Rectangle-2" fill="#EDEDED" x="0" y="0" width="68" height="25" rx="4"></rect>
            <text id="HSBC" font-family="UniversNextforHSBC-Regular, Univers Next for HSBC" font-size="16" font-weight="normal" fill="#333333">
                <tspan x="12" y="19">HSBC</tspan>
            </text>
        </g>
        <g id="help-/-device-/-elements-/-security-buttons-/-green" transform="translate(82.000000, 148.000000)">
            <g id="tds-/-elements-/-token-/-security-buttons-/-green" transform="translate(0.000000, -3.600000)">
                <ellipse id="Oval" stroke="#FFFFFF" stroke-width="2" fill="#383C42" cx="9.03829787" cy="12.6" rx="9.03829787" ry="9"></ellipse>
                <ellipse id="Oval" fill="#1DC19F" cx="9.03829787" cy="12.6" rx="4.51914894" ry="4.5"></ellipse>
                <rect id="Rectangle-3" fill="#FFFFFF" x="8.13446809" y="0" width="1.80765957" height="13.5"></rect>
            </g>
        </g>
        <g id="help-/-device-/-elements-/-security-buttons-/-yellow" transform="translate(17.000000, 148.000000)">
            <circle id="Oval" fill="#606060" cx="10" cy="10" r="9"></circle>
            <rect id="Rectangle-3" fill="#E8A01A" x="6" y="6" width="8" height="8" rx="1"></rect>
        </g>
        <g id="help-/-device-/-elements-/-security-buttons-/-number" transform="translate(49.000000, 148.000000)">
            <circle id="Oval" fill="#606060" fill-rule="evenodd" cx="10" cy="10" r="9"></circle>
            <text id="0" font-family="Helvetica" font-size="11" font-weight="normal" fill="#FFFFFF">
                <tspan x="6.94116211" y="14">0</tspan>
            </text>
        </g>
        <g id="help-/-device-/-elements-/-security-buttons-/-number" transform="translate(81.000000, 120.000000)">
            <circle id="Oval" fill="#606060" fill-rule="evenodd" cx="10" cy="10" r="9"></circle>
            <text id="0" font-family="Helvetica" font-size="11" font-weight="normal" fill="#FFFFFF">
                <tspan x="6.94116211" y="14">9</tspan>
            </text>
        </g>
        <g id="help-/-device-/-elements-/-security-buttons-/-number" transform="translate(49.000000, 120.000000)">
            <circle id="Oval" fill="#606060" fill-rule="evenodd" cx="10" cy="10" r="9"></circle>
            <text id="0" font-family="Helvetica" font-size="11" font-weight="normal" fill="#FFFFFF">
                <tspan x="6.94116211" y="14">8</tspan>
            </text>
        </g>
        <g id="help-/-device-/-elements-/-security-buttons-/-number" transform="translate(17.000000, 120.000000)">
            <circle id="Oval" fill="#606060" fill-rule="evenodd" cx="10" cy="10" r="9"></circle>
            <text id="0" font-family="Helvetica" font-size="11" font-weight="normal" fill="#FFFFFF">
                <tspan x="6.94116211" y="14">7</tspan>
            </text>
        </g>
        <g id="help-/-device-/-elements-/-security-buttons-/-number" transform="translate(81.000000, 93.000000)">
            <circle id="Oval" fill="#606060" fill-rule="evenodd" cx="10" cy="10" r="9"></circle>
            <text id="0" font-family="Helvetica" font-size="11" font-weight="normal" fill="#FFFFFF">
                <tspan x="6.94116211" y="14">6</tspan>
            </text>
        </g>
        <g id="help-/-device-/-elements-/-security-buttons-/-number" transform="translate(49.000000, 93.000000)">
            <circle id="Oval" fill="#606060" fill-rule="evenodd" cx="10" cy="10" r="9"></circle>
            <text id="0" font-family="Helvetica" font-size="11" font-weight="normal" fill="#FFFFFF">
                <tspan x="6.94116211" y="14">5</tspan>
            </text>
        </g>
        <g id="help-/-device-/-elements-/-security-buttons-/-number" transform="translate(17.000000, 93.000000)">
            <circle id="Oval" fill="#606060" fill-rule="evenodd" cx="10" cy="10" r="9"></circle>
            <text id="0" font-family="Helvetica" font-size="11" font-weight="normal" fill="#FFFFFF">
                <tspan x="6.94116211" y="14">4</tspan>
            </text>
        </g>
        <g id="help-/-device-/-elements-/-security-buttons-/-number-(pressed)" transform="translate(81.000000, 65.000000)">
            <g id="help-/-device-/-elements-/-security-buttons-/-number">
                <circle id="Oval" fill="#606060" fill-rule="evenodd" cx="10" cy="10" r="9"></circle>
                <text id="0" font-family="Helvetica" font-size="11" font-weight="normal" fill="#FFFFFF">
                    <tspan x="6.94116211" y="14">3</tspan>
                </text>
            </g>
            <rect id="Rectangle-2" stroke="#4489A3" stroke-width="1" x="-0.5" y="-0.5" width="21" height="21"></rect>
        </g>
        <g id="help-/-device-/-elements-/-security-buttons-/-number" transform="translate(49.000000, 65.000000)">
            <circle id="Oval" fill="#606060" fill-rule="evenodd" cx="10" cy="10" r="9"></circle>
            <text id="0" font-family="Helvetica" font-size="11" font-weight="normal" fill="#FFFFFF">
                <tspan x="6.94116211" y="14">2</tspan>
            </text>
        </g>
        <g id="help-/-device-/-elements-/-security-buttons-/-number-(pressed)" transform="translate(17.000000, 65.000000)">
            <g id="help-/-device-/-elements-/-security-buttons-/-number">
                <circle id="Oval" fill="#606060" fill-rule="evenodd" cx="10" cy="10" r="9"></circle>
                <text id="0" font-family="Helvetica" font-size="11" font-weight="normal" fill="#FFFFFF">
                    <tspan x="6.94116211" y="14">1</tspan>
                </text>
            </g>
            <rect id="Rectangle-2" stroke="#4489A3" stroke-width="1" x="-0.5" y="-0.5" width="21" height="21"></rect>
        </g>
        <text id="Commercial-Banking" opacity="0.692821558" font-family="Helvetica" font-size="8" font-weight="normal" fill="#FFFFFF">
            <tspan x="21.5976562" y="11">Commercial Banking</tspan>
        </text>
    </g>
</svg>