<?xml version="1.0" encoding="UTF-8"?>
<svg width="48px" height="47px" viewBox="0 0 48 47" version="1.1" xmlns="http://www.w3.org/2000/svg" xmlns:xlink="http://www.w3.org/1999/xlink">
    <title>FSCS</title>
    <g id="Page-1" stroke="none" stroke-width="1" fill="none" fill-rule="evenodd">
        <g id="DESKTOP-DIRECT" transform="translate(-761.000000, -372.000000)" fill="#252525">
            <g id="Group-2" transform="translate(761.000000, 372.000000)">
                <path d="M19.1418008,42.8952638 C20.341441,42.8952638 21.0104076,43.809193 21.0104076,44.9353602 C21.0104076,46.0778897 20.3250787,47 19.1172573,47 C17.8850498,47 17.240312,46.1024331 17.240312,44.9353602 C17.240312,43.8011692 17.9503417,42.8952638 19.1418008,42.8952638 Z M36.1842122,42.8953268 C36.4941521,42.8953268 36.7797058,42.9850048 37.024511,43.140132 C37.5223027,43.4665915 37.7184931,44.0131555 37.7184931,44.6089637 C37.7184931,44.7642482 37.7101546,44.9273993 37.6856111,45.0985742 C37.3429467,45.1067553 37.0166445,45.0985742 36.6982089,45.0985742 L35.1233369,45.0985742 C35.1477231,45.8086039 35.5474983,46.4450032 36.314796,46.4450032 C36.7633435,46.4450032 37.1714571,46.2901906 37.55487,45.9881172 L37.6366815,46.5510435 C37.2123629,46.8693218 36.7307762,46.9999056 36.2167795,46.9999056 C34.984572,46.9999056 34.3643777,46.0777953 34.3643777,44.9273993 C34.3643777,43.8254609 35.0010916,42.8953268 36.1842122,42.8953268 Z M22.5961982,42.02191 L22.5961982,43.0258319 L23.6816169,43.0258319 L23.6816169,43.4828751 L22.5961982,43.4828751 L22.5961982,45.4823804 C22.5961982,45.7761153 22.6205843,45.9963771 22.6695139,46.1269608 C22.7431443,46.3223645 22.8979569,46.437058 23.1511006,46.437058 C23.3550001,46.437058 23.5836004,46.3470653 23.8527918,46.1511896 L23.9588322,46.6491387 C23.6488923,46.8856055 23.3386378,46.9999843 23.0041545,46.9999843 C22.5063629,46.9999843 22.1880845,46.8042659 22.0167523,46.420381 C21.9350981,46.2330012 21.9023735,45.9309278 21.9023735,45.4414746 L21.9023735,43.4907416 L21.3394473,43.4907416 L21.3394473,43.0258319 L21.9023735,43.0258319 L21.9023735,42.2914161 L22.5961982,42.02191 Z M32.8054904,42.02191 L32.8054904,43.0258319 L33.8909092,43.0258319 L33.8909092,43.4828751 L32.8054904,43.4828751 L32.8054904,45.4823804 C32.8054904,45.7761153 32.8298766,45.9963771 32.8789635,46.1269608 C32.9524365,46.3223645 33.1072491,46.437058 33.3605502,46.437058 C33.5644497,46.437058 33.7928927,46.3470653 34.0623987,46.1511896 L34.1682817,46.6491387 C33.8583419,46.8856055 33.5482447,46.9999843 33.2136041,46.9999843 C32.7158124,46.9999843 32.3975341,46.8042659 32.2260446,46.420381 C32.1445477,46.2330012 32.1119804,45.9309278 32.1119804,45.4414746 L32.1119804,43.4907416 L31.5487395,43.4907416 L31.5487395,43.0258319 L32.1119804,43.0258319 L32.1119804,42.2914161 L32.8054904,42.02191 Z M41.6273063,41.1243431 L41.6273063,46.8939439 L41.0969474,46.8939439 L41.0152932,46.5509648 C40.7135345,46.844857 40.2645151,46.9999843 39.8973072,46.9999843 C38.8529515,46.9999843 38.2082137,46.1433232 38.2082137,44.984274 C38.2082137,43.7602477 39.0732133,42.9116104 40.0033475,42.9116104 C40.3379881,42.9116104 40.7135345,43.0338557 40.9418201,43.1973214 L40.9418201,41.1243431 L41.6273063,41.1243431 Z M30.0387346,42.8952481 C30.4630533,42.8952481 30.8631431,43.0012884 31.2221699,43.262456 L31.0835623,43.792815 C30.7567882,43.5725532 30.4226195,43.4503079 30.0632781,43.4503079 C29.2472081,43.4503079 28.765936,44.1438179 28.765936,44.9189821 C28.765936,45.7026422 29.1820735,46.453263 30.0387346,46.453263 C30.4226195,46.453263 30.7895128,46.3390415 31.140673,46.1107559 L31.2709421,46.6244379 C30.854962,46.8694005 30.4062572,46.9999843 29.9407181,46.9999843 C28.7985033,46.9999843 28.0230244,46.1269608 28.0230244,45.0088175 C28.0230244,43.792815 28.8148656,42.8952481 30.0387346,42.8952481 Z M25.9828809,42.8953268 C26.292978,42.8953268 26.5785317,42.9850048 26.823337,43.140132 C27.3211287,43.4665915 27.5168471,44.0131555 27.5168471,44.6089637 C27.5168471,44.7642482 27.5088232,44.9273993 27.4842798,45.0985742 C27.1416153,45.1067553 26.8153132,45.0985742 26.4970349,45.0985742 L24.9220056,45.0985742 C24.9465491,45.8086039 25.3463242,46.4450032 26.1134647,46.4450032 C26.5621694,46.4450032 26.9701258,46.2901906 27.353696,45.9881172 L27.4353502,46.5510435 C27.0110315,46.8693218 26.5296022,46.9999056 26.0156055,46.9999056 C24.7832407,46.9999056 24.1630463,46.0777953 24.1630463,44.9273993 C24.1630463,43.8254609 24.799603,42.8953268 25.9828809,42.8953268 Z M16.6935436,42.9116261 C16.8159462,42.9116261 16.930325,42.9278311 17.0607515,42.9687369 L17.0036407,43.5645451 C16.9139627,43.5400016 16.7670166,43.5316631 16.6364328,43.5316631 C16.2774061,43.5316631 15.9673089,43.7519249 15.7714332,44.0458171 L15.7714332,46.8939597 L15.085947,46.8939597 L15.085947,43.0175091 L15.6328256,43.0175091 L15.7061413,43.4172843 C15.9264031,43.1076592 16.3099733,42.9116261 16.6935436,42.9116261 Z M12.2400071,41.2550528 C13.0233525,41.2550528 13.7659494,41.3772981 14.1495196,42.1526197 C14.2801034,42.4054488 14.3372142,42.6749548 14.3372142,42.9524847 C14.3372142,44.1599914 13.5293253,44.7888389 12.3786147,44.7888389 C12.2238021,44.7888389 12.0686749,44.7805004 11.9135476,44.7805004 L11.9135476,46.8939125 L11.1627695,46.8939125 L11.1627695,41.3609358 C11.4974101,41.2958012 11.880823,41.2550528 12.2400071,41.2550528 Z M19.1418008,43.4336466 C18.3257308,43.4336466 17.982909,44.2171494 17.982909,44.9353602 C17.982909,45.6534137 18.3011873,46.4613025 19.1172573,46.4613025 C19.9333273,46.4613025 20.2596295,45.6534137 20.2596295,44.9353602 C20.2596295,44.2254878 19.9578708,43.4336466 19.1418008,43.4336466 Z M40.0768205,43.4907416 C39.5548,43.4907416 38.9506534,43.9397611 38.9506534,44.9515494 C38.9506534,45.8983606 39.3752867,46.4287195 40.0033475,46.4287195 C40.3788939,46.4287195 40.7461018,46.241025 40.9418201,46.0206059 L40.9418201,43.7682715 C40.7623067,43.6296639 40.4276661,43.4907416 40.0768205,43.4907416 Z M36.1352826,43.4502292 C35.4985687,43.4502292 35.1884715,43.9805882 35.1313608,44.5601914 L36.9840773,44.5601914 C36.9840773,44.5354906 36.9919437,44.5109471 36.9919437,44.4867183 C36.9919437,43.9560447 36.7065474,43.4502292 36.1352826,43.4502292 Z M25.9339513,43.4502292 C25.2973947,43.4502292 24.9871402,43.9805882 24.9300294,44.5601914 L26.7824312,44.5601914 L26.7907697,44.4867183 L26.7907697,44.4867183 C26.7907697,43.9560447 26.505216,43.4502292 25.9339513,43.4502292 Z M12.394977,41.8754045 C12.2318259,41.8754045 12.0686749,41.8834283 11.9135476,41.8996333 L11.9135476,44.1521249 C12.0686749,44.1599914 12.2318259,44.1683299 12.3867958,44.1683299 C13.137574,44.1683299 13.5702311,43.7765785 13.5702311,43.0176193 C13.5702311,42.2422977 13.1621174,41.8754045 12.394977,41.8754045 Z M26.5276215,0 C26.7883406,0 27.049586,0.00245630349 27.3103051,0.00578985823 C28.2796677,0.0233348832 29.2495567,0.061232137 30.216463,0.141939252 C31.1835448,0.221242764 32.1495739,0.321073956 33.110164,0.467399464 C34.0702277,0.615479474 35.0269579,0.794789629 35.9742138,1.0216468 C37.865743,1.4800983 39.73306,2.10294669 41.4800181,3.02388505 C42.3537604,3.48005569 43.1946934,4.01833706 43.9687799,4.65750232 C44.7453227,5.29193042 45.455019,6.03162867 46.0436546,6.88063243 C46.6350973,7.72700443 47.094777,8.68566459 47.3997095,9.70467964 C47.7006067,10.7280809 47.8548275,11.7955203 47.8797414,12.8734866 C47.8832504,12.9943718 47.8851804,13.115257 47.8851804,13.2364932 L47.8851804,13.2364932 L47.8851804,13.3117613 C47.8804432,15.3229475 47.4702405,17.3297475 46.8184429,19.2304 C46.4710514,20.2530995 46.0406719,21.2443934 45.5516921,22.2025272 C45.0632386,23.1613629 44.5105703,24.0854593 43.8982489,24.9644651 C42.6727289,26.7200203 41.2191236,28.3131085 39.5472582,29.610914 C37.879779,30.9102986 35.9977242,31.9214184 33.9947841,32.5030359 L33.9947841,32.5030359 L33.6135307,32.6069025 C33.4719424,32.6442734 33.3859718,32.6644502 33.2382427,32.6993648 C32.9805062,32.7593687 32.7218926,32.8111266 32.4620508,32.8542873 C31.9414899,32.9358717 31.4175954,32.9816642 30.8947537,32.9955248 C30.3720874,33.0118417 29.8504738,32.982366 29.3348255,32.9262219 C28.8188263,32.8707797 28.3080907,32.7823527 27.8075311,32.6583094 C26.1067164,32.2491594 24.5218743,31.4989342 23.089323,30.5350105 L23.089323,30.5350105 L23.1000255,30.5460639 C20.9481281,29.0775453 19.1767824,27.4286638 17.9012591,25.774168 L17.9012591,25.774168 C17.8823105,25.740657 17.8658182,25.7053915 17.8658182,25.6648625 C17.8658182,25.5716984 17.9444199,25.4959039 18.0414439,25.4959039 C18.0842537,25.4959039 18.1218001,25.5123962 18.152153,25.5367838 C18.1511003,25.5350293 18.1496967,25.5332748 18.148644,25.5313448 L18.148644,25.5313448 L18.1723297,25.5494162 L18.1747861,25.5473108 L18.1912784,25.5638031 C19.751382,26.7735326 21.363068,27.8199179 23.0300208,28.6736588 C24.7113605,29.5279261 26.4539324,30.1693722 28.2196637,30.4569351 C28.6614475,30.5257116 29.1032312,30.5771185 29.5448395,30.6046642 C29.9866232,30.6313327 30.4278806,30.6269464 30.8675589,30.6079978 C31.3068863,30.5864174 31.7444592,30.5364141 32.1786986,30.4602687 C32.3955551,30.4246523 32.6122362,30.3811406 32.8273382,30.3318391 C32.916116,30.3113114 33.0663014,30.2753441 33.1594655,30.2502547 L33.1594655,30.2502547 L33.4819431,30.1628805 C35.2257431,29.6739007 36.9097146,28.8603379 38.4833279,27.8079873 C38.8782664,27.5469173 39.2646078,27.2676005 39.6425277,26.973195 C40.0229038,26.6826494 40.3936302,26.3742078 40.7562858,26.052783 C41.4840535,25.4134423 42.1758538,24.7160275 42.8225634,23.9666795 C43.4694485,23.2175069 44.0733483,22.4179802 44.6219812,21.5716081 C45.1678069,20.7234816 45.6545059,19.8267554 46.0724284,18.8919565 C46.9031853,17.0232359 47.4346241,14.9674853 47.4572572,12.8878735 C47.4616435,11.8535943 47.3461972,10.8094899 47.0653014,9.82942477 C46.7889672,8.84479797 46.3442008,7.92385961 45.7729348,7.11152495 C45.4866,6.70641033 45.1695614,6.32691144 44.8283107,5.97513369 C44.4854809,5.62493499 44.1193162,5.30228198 43.7364838,5.00542016 C42.9671344,4.41555642 42.1319912,3.93043648 41.267197,3.5223392 C39.5297131,2.71684711 37.678713,2.21944565 35.8082379,1.88573928 C34.8723863,1.71783339 33.9296921,1.58905291 32.9833134,1.49448522 C32.0367593,1.39956664 31.0875735,1.32412303 30.1355804,1.28341857 C28.2340506,1.1986761 26.3188357,1.18814909 24.4164287,1.25183753 C22.5120917,1.32166673 20.6110882,1.52168001 18.7274543,1.83503416 C17.7865147,1.99574659 16.8503121,2.19277722 15.9253384,2.43630216 C15.0007156,2.68070436 14.0836371,2.9594948 13.1904199,3.30811445 C12.2975536,3.65550594 11.4262677,4.06781403 10.606915,4.56960174 C9.79212404,5.07349486 9.0255819,5.68300902 8.43940262,6.44586671 C8.14727796,6.82624285 7.90813927,7.2489025 7.7532167,7.70366955 C7.59829413,8.15843659 7.53197393,8.64390743 7.55758967,9.13078187 C7.5825036,9.61905992 7.70338883,10.1036535 7.88147083,10.5652631 C7.90164761,10.6175473 7.92515794,10.6684279 7.94691377,10.7200102 L7.94691377,10.7200102 L7.95875666,10.7604077 L7.95875666,10.7604077 L7.96340609,10.8052791 C7.96340609,10.9286206 7.85989045,11.0284518 7.73181177,11.0284518 C7.65654361,11.0284518 7.59092522,10.9928354 7.54864171,10.9391476 C7.52267507,10.8875652 7.49495393,10.8373864 7.47021544,10.7847514 C7.24458642,10.2977015 7.07790869,9.76345547 7.01562385,9.19868112 C6.95070726,8.63513492 7.00088603,8.04474483 7.16212481,7.49312925 C7.32160908,6.94046096 7.58162635,6.42867258 7.89550685,5.97530914 C8.20903644,5.51966484 8.57713107,5.12069098 8.96733242,4.76207067 C9.35806013,4.40239766 9.77387722,4.08535905 10.201274,3.79533979 C11.0571203,3.21530127 11.9652508,2.75772702 12.8879437,2.36471846 C14.7356103,1.57957859 16.6529306,1.06954472 18.5795498,0.701800997 C20.5072217,0.330372819 22.4534913,0.138430247 24.3971291,0.0461434156 C25.0698054,0.0138605697 25.7405517,0.000701800997 26.4100699,0 L26.4100699,0 Z M19.0582833,6.59985939 C19.8367561,6.59985939 20.6492662,6.8153123 21.1429832,7.03620416 L21.1429832,7.03620416 L19.9413244,8.86229036 C19.281456,8.58946522 18.7275596,8.45156132 18.294022,8.45156132 C16.2633609,8.45156132 14.5660551,10.0546503 13.2496519,13.217141 L13.2496519,13.217141 L13.1024492,13.5689187 L16.9841105,13.5689187 L16.1787938,15.1404266 L12.5394293,15.1404266 L10.239452,20.7197446 C8.22738854,25.2407466 5.38526995,27.5335304 1.79169795,27.5335304 C1.06989562,27.5335304 0.467574914,27.4228213 0,27.2038594 L0,27.2038594 L0.93602708,25.2828546 C1.59431642,25.5525217 2.12557977,25.6841094 2.55631013,25.6841094 C4.56082923,25.6841094 6.24550252,24.0803186 7.56260755,20.9167752 L7.56260755,20.9167752 L8.44319235,18.78909 L0.330197369,18.78909 L1.13779487,17.2279337 L9.0076158,17.2279337 L9.89363956,15.1404266 L3.09108249,15.1434093 L3.89920634,13.5680415 L10.5401737,13.5689187 L10.6075466,13.4180315 C12.6203119,8.89369595 15.4636586,6.59985939 19.0582833,6.59985939 Z M38.9307435,13.4263654 C39.6569321,13.4263654 40.5201473,13.6577843 41.5207401,14.1179903 L40.6348918,15.7596783 C40.0553796,15.1994656 39.4160389,14.9204997 38.7152906,14.9204997 C38.2480666,14.9204997 37.8399693,15.039455 37.4880161,15.2794709 C37.1358875,15.5182587 36.9479803,15.8330165 36.9267508,16.2246214 C36.910083,16.5104299 36.9925446,16.7560602 37.1734338,16.9590562 C37.3552003,17.1653857 37.6752216,17.3936465 38.1319186,17.649102 L39.4005993,18.356342 C39.7915025,18.5731985 40.0773109,18.8542698 40.2580247,19.1955205 C40.4382121,19.5364203 40.5162874,19.9089012 40.4926017,20.3133141 C40.4334749,21.3811043 39.9971302,22.2257218 39.18848,22.8468157 C38.380707,23.4689622 37.3767807,23.7798601 36.1831926,23.7798601 C35.1325965,23.7798601 34.2046402,23.5173865 33.4000253,22.995422 L34.4190404,21.3160122 C34.6476521,21.5572563 34.9831129,21.7806045 35.4255985,21.9825477 C35.869663,22.1853682 36.2521446,22.2874803 36.576903,22.2874803 C37.1313258,22.2874803 37.5983743,22.1364176 37.9743642,21.8385031 C38.3515823,21.540764 38.5558064,21.1377548 38.5856329,20.6282472 C38.6003707,20.3671773 38.5191373,20.1345302 38.3400025,19.9304816 C38.1613942,19.7259066 37.8468119,19.4895751 37.3966066,19.2235926 L36.1210832,18.4965267 C35.7294783,18.2666869 35.4419153,17.9756149 35.2603243,17.6248899 C35.0787333,17.2750421 34.997149,16.9009822 35.0208347,16.5025346 C35.0732944,15.5765082 35.4741982,14.8331255 36.2281079,14.2723865 C36.9792104,13.7091912 37.8819019,13.4263654 38.9307435,13.4263654 Z M30.9923917,13.4269444 C31.948771,13.4269444 32.6919783,13.5952012 33.2200836,13.9252231 L32.8170743,15.4391833 C32.3866949,15.0931954 31.7966557,14.9209033 31.0406406,14.9209033 C29.8940732,14.9209033 28.942431,15.3733895 28.1848369,16.2766074 C27.4254882,17.1819306 27.0093202,18.2918289 26.9354556,19.6098112 C26.888435,20.4177596 27.0803775,21.0630656 27.5118097,21.5445011 C27.9432419,22.0262875 28.4513458,22.2656016 29.0369987,22.2656016 C29.9405675,22.2656016 30.8223804,21.9873375 31.6817358,21.4301075 L31.3796104,23.241105 C30.54552,23.6002517 29.6435302,23.7799127 28.6745185,23.7799127 C27.4432086,23.7799127 26.5170068,23.4272577 25.8976674,22.7222986 C25.2785035,22.0171641 25.001643,21.0799088 25.0681386,19.9128138 C25.1756896,18.011284 25.7839756,16.4555666 26.8977338,15.2437317 C28.0113166,14.0329496 29.3752668,13.4269444 30.9923917,13.4269444 Z M21.6049612,13.4263654 C22.3318516,13.4263654 23.1936632,13.6577843 24.194256,14.1179903 L23.3085832,15.7596783 C22.7320536,15.1994656 22.0913093,14.9204997 21.3888065,14.9204997 C20.9219334,14.9204997 20.5131343,15.039455 20.1613566,15.2794709 C19.8094034,15.5182587 19.6228998,15.8330165 19.599214,16.2246214 C19.583248,16.5104299 19.6655342,16.7560602 19.8476515,16.9590562 C20.027839,17.1653857 20.3487375,17.3936465 20.807189,17.649102 L22.0737643,18.356342 C22.4653693,18.5731985 22.7518795,18.8542698 22.9315406,19.1955205 C23.1120789,19.5364203 23.1905051,19.9089012 23.1664685,20.3133141 C23.1073417,21.3811043 22.6720497,22.2257218 21.8621713,22.8468157 C21.0526439,23.4689622 20.0509984,23.7798601 18.8567085,23.7798601 C17.8052352,23.7798601 16.878507,23.5173865 16.0740676,22.995422 L17.0925563,21.3160122 C17.3206416,21.5572563 17.6569797,21.7806045 18.0994653,21.9825477 C18.5437053,22.1853682 18.9279413,22.2874803 19.2521734,22.2874803 C19.8048417,22.2874803 20.2718902,22.1364176 20.6499855,21.8385031 C21.0282563,21.540764 21.2307259,21.1377548 21.2600261,20.6282472 C21.2738866,20.3671773 21.1916005,20.1345302 21.0147466,19.9304816 C20.8366646,19.7259066 20.5220823,19.4895751 20.0708243,19.2235926 L18.7960028,18.4965267 C18.4033451,18.2666869 18.1164839,17.9756149 17.934542,17.6248899 C17.7526001,17.2750421 17.6710158,16.9009822 17.6938243,16.5025346 C17.7457576,15.5765082 18.148065,14.8331255 18.9016238,14.2723865 C19.6541299,13.7091912 20.5562951,13.4263654 21.6049612,13.4263654 Z" id="FSCS"></path>
            </g>
        </g>
    </g>
</svg>