<?xml version="1.0" encoding="UTF-8"?>
<svg width="114px" height="24px" viewBox="0 0 114 24" version="1.1" xmlns="http://www.w3.org/2000/svg" xmlns:xlink="http://www.w3.org/1999/xlink">
    <!-- Generator: Sketch 61 (89581) - https://sketch.com -->
    <title>NRFB - logo</title>
    <desc>Created with Sketch.</desc>
    <g id="NRFB---logo" stroke="none" stroke-width="1" fill="none" fill-rule="evenodd">
        <g id="navigation-/-brand-/-logo">
            <g id="Logo">
                <g id="HSBC_MASTERBRAND_UK_RGB_NEG" fill-rule="nonzero">
                    <polygon id="Shape" fill="#FFFFFF" points="35.6093023 0.0111627907 11.8772093 0.0111627907 0.0111627907 11.8772093 11.8772093 23.7432558 35.6093023 23.7432558 47.4753488 11.8772093"></polygon>
                    <polygon id="Shape" fill="#DB0011" points="47.4753488 11.8772093 35.6093023 0.0111627907 35.6093023 23.7432558"></polygon>
                    <polygon id="Shape" fill="#DB0011" points="23.7432558 11.8772093 35.6093023 0.0111627907 11.8772093 0.0111627907"></polygon>
                    <polygon id="Shape" fill="#DB0011" points="0.0111627907 11.8772093 11.8772093 23.7432558 11.8772093 0.0111627907"></polygon>
                    <polygon id="Shape" fill="#DB0011" points="23.7432558 11.8772093 11.8772093 23.7432558 35.6093023 23.7432558"></polygon>
                </g>
                <!-- <g id="Wording" transform="translate(51.000000, 6.545883)" fill="#FFFFFF">
                    <path d="M14.6262484,10.7129367 C12.3939503,10.7129367 10.5566832,9.84063667 10.5160621,7.40120333 L12.7628944,7.40120333 C12.7919627,8.48507 13.4374286,9.13443667 14.6668696,9.13443667 C15.5825217,9.13443667 16.6144472,8.68270333 16.6144472,7.66997 C16.6144472,6.88090333 15.9138261,6.62900333 14.7540745,6.30303667 L14.0102236,6.09147 C12.3794161,5.62800333 10.7601615,5.00723667 10.7601615,3.17390333 C10.7601615,0.90607 12.9086087,0.145603333 14.8703478,0.145603333 C16.8876149,0.145603333 18.6201615,0.83457 18.6492298,3.08847 L16.4023975,3.08847 C16.3151925,2.15897 15.7714658,1.62400333 14.7134534,1.62400333 C13.8820248,1.62400333 13.0535776,2.06143667 13.0535776,2.96233667 C13.0535776,3.70887 13.7396646,3.93510333 15.2016522,4.39270333 L16.0740745,4.66147 C17.8498509,5.21037 18.9663727,5.80510333 18.9663727,7.50717 C18.9369317,9.82633667 16.6580497,10.7129367 14.6262484,10.7129367" id="Fill-7"></path>
                    <path d="M24.0183354,8.99708333 C25.064795,8.99708333 26.0933665,8.75691667 26.0933665,7.51868333 C26.0933665,6.28008333 25.2067826,6.02561667 24.1461615,6.02561667 L22.3700124,6.02561667 L22.3700124,8.99708333 L24.0183354,8.99708333 Z M23.8088944,4.58718333 C24.7972174,4.58718333 25.8000745,4.38991667 25.8000745,3.20558333 C25.8000745,2.15031667 24.855354,1.86725 23.954236,1.86725 L22.3789565,1.86725 L22.3789565,4.58718333 L23.8088944,4.58718333 Z M20.201441,0.345583333 L23.7943602,0.345583333 C24.4756025,0.312216667 25.1579627,0.354383333 25.8291429,0.471716667 C27.0876522,0.75735 28.035354,1.55558333 28.035354,2.92251667 C28.035354,4.23225 27.189764,4.90728333 25.9744845,5.21051667 C27.3787081,5.46498333 28.4072795,6.16861667 28.4072795,7.67561667 C28.4072795,9.98671667 26.0818137,10.5213167 24.2710062,10.5213167 L20.201441,10.5213167 L20.201441,0.345583333 Z" id="Fill-9"></path>
                    <path d="M34.2645839,10.7129367 C30.9276894,10.7129367 29.4250807,8.61377 29.4250807,5.51360333 C29.4250807,2.41343667 31.0845839,0.145603333 34.366323,0.145603333 C36.4275652,0.145603333 38.4358882,1.04613667 38.4914161,3.35723667 L36.1659503,3.35723667 C36.0526584,2.34193667 35.3635901,1.80697 34.3607329,1.80697 C32.3404845,1.80697 31.7270683,3.94903667 31.7270683,5.58217 C31.7270683,7.21530333 32.3434658,9.08860333 34.2906708,9.08860333 C35.3084348,9.08860333 36.0526584,8.55363667 36.2095528,7.52440333 L38.5350186,7.52440333 C38.302472,9.85493667 36.4130311,10.7129367 34.2645839,10.7129367" id="Fill-11"></path>
                    <polygon id="Fill-6" points="6.99592547 6.18009333 2.50785093 6.18009333 2.50785093 10.5327933 0.260645963 10.5327933 0.260645963 0.345693333 2.50785093 0.345693333 2.50785093 4.51542667 6.98996273 4.51542667 6.98996273 0.345693333 9.2371677 0.345693333 9.2371677 10.52986 6.98996273 10.52986"></polygon>
                </g> -->
            </g>
        </g>
    </g>
</svg>